<?xml version="1.0" encoding="UTF-8" standalone="no"?>
<!-- Generator: Adobe Illustrator 19.0.0, SVG Export Plug-In . SVG Version: 6.00 Build 0)  -->

<svg
   xmlns:dc="http://purl.org/dc/elements/1.1/"
   xmlns:cc="http://creativecommons.org/ns#"
   xmlns:rdf="http://www.w3.org/1999/02/22-rdf-syntax-ns#"
   xmlns:svg="http://www.w3.org/2000/svg"
   xmlns="http://www.w3.org/2000/svg"
   xmlns:sodipodi="http://sodipodi.sourceforge.net/DTD/sodipodi-0.dtd"
   xmlns:inkscape="http://www.inkscape.org/namespaces/inkscape"
   version="1.1"
   id="Layer_1"
   x="0px"
   y="0px"
   viewBox="0 0 503.322 503.322"
   style="enable-background:new 0 0 503.322 503.322;"
   xml:space="preserve"
   width="40px"
   height="40px"
   inkscape:version="0.91 r13725"
   sodipodi:docname="brick-wall.svg"><metadata
     id="metadata43"><rdf:RDF><cc:Work
         rdf:about=""><dc:format>image/svg+xml</dc:format><dc:type
           rdf:resource="http://purl.org/dc/dcmitype/StillImage" /></cc:Work></rdf:RDF></metadata><defs
     id="defs41" /><sodipodi:namedview
     pagecolor="#ffffff"
     bordercolor="#666666"
     borderopacity="1"
     objecttolerance="10"
     gridtolerance="10"
     guidetolerance="10"
     inkscape:pageopacity="0"
     inkscape:pageshadow="2"
     inkscape:window-width="640"
     inkscape:window-height="480"
     id="namedview39"
     showgrid="false"
     inkscape:zoom="5.9"
     inkscape:cx="20"
     inkscape:cy="20"
     inkscape:window-x="181"
     inkscape:window-y="76"
     inkscape:window-maximized="0"
     inkscape:current-layer="Layer_1" /><g
     transform="translate(1 1)"
     id="g3"
     style="fill:#ff8080"><g
       id="g5"
       style="fill:#ff8080"><path
         d="M493.644,172.559h-60.746h-52.068v-60.746c0-5.207-3.471-8.678-8.678-8.678H250.661h-52.068V42.39    c0-5.207-3.471-8.678-8.678-8.678H68.424H7.678C2.471,33.712-1,37.183-1,42.39v69.424v69.424v69.424v69.424v69.424v69.424    c0,5.207,3.471,8.678,8.678,8.678h121.492h121.492h121.492h121.492c5.207,0,8.678-3.471,8.678-8.678v-69.424v-69.424v-69.424    v-69.424C502.322,176.031,498.851,172.559,493.644,172.559z M372.153,380.831h-52.068v-52.068h52.068h52.068v52.068H372.153z     M250.661,380.831h-52.068v-52.068h52.068h52.068v52.068H250.661z M129.169,380.831H77.102v-52.068h52.068h52.068v52.068H129.169z     M16.356,380.831v-52.068h43.39v52.068H16.356z M68.424,120.492h52.068v52.068H68.424H16.356v-52.068H68.424z M250.661,189.915    h52.068v52.068h-52.068h-52.068v-52.068H250.661z M432.898,259.339h52.068v52.068h-52.068h-52.068v-52.068H432.898z     M363.475,311.407h-52.068h-52.068v-52.068h52.068h52.068V311.407z M189.915,311.407h-52.068v-52.068h52.068h52.068v52.068    H189.915z M68.424,311.407H16.356v-52.068h52.068h52.068v52.068H68.424z M16.356,189.915h43.39v52.068h-43.39V189.915z     M181.237,241.983h-52.068H77.102v-52.068h52.068h52.068V241.983z M441.576,328.763h43.39v52.068h-43.39V328.763z     M484.966,241.983h-43.39v-52.068h43.39V241.983z M424.22,241.983h-52.068h-52.068v-52.068h52.068h52.068V241.983z     M363.475,172.559h-52.068h-52.068v-52.068h104.136V172.559z M241.983,172.559h-52.068h-52.068v-52.068h52.068h52.068V172.559z     M181.237,103.136h-52.068H77.102V51.068h104.136V103.136z M16.356,51.068h43.39v52.068h-43.39V51.068z M16.356,398.186h52.068    h52.068v52.068H16.356V398.186z M137.847,398.186h52.068h52.068v52.068H137.847V398.186z M259.339,398.186h52.068h52.068v52.068    H259.339V398.186z M484.966,450.254H380.831v-52.068h52.068h52.068V450.254z"
         fill="#933EC5"
         id="path7"
         style="fill:#ff8080" /></g></g><g
     id="g9"
     style="fill:#ff8080" /><g
     id="g11"
     style="fill:#ff8080" /><g
     id="g13"
     style="fill:#ff8080" /><g
     id="g15"
     style="fill:#ff8080" /><g
     id="g17"
     style="fill:#ff8080" /><g
     id="g19"
     style="fill:#ff8080" /><g
     id="g21"
     style="fill:#ff8080" /><g
     id="g23"
     style="fill:#ff8080" /><g
     id="g25"
     style="fill:#ff8080" /><g
     id="g27"
     style="fill:#ff8080" /><g
     id="g29"
     style="fill:#ff8080" /><g
     id="g31"
     style="fill:#ff8080" /><g
     id="g33"
     style="fill:#ff8080" /><g
     id="g35"
     style="fill:#ff8080" /><g
     id="g37"
     style="fill:#ff8080" /></svg>