<?xml version="1.0" encoding="iso-8859-1"?>
<!-- Generator: Adobe Illustrator 19.0.0, SVG Export Plug-In . SVG Version: 6.00 Build 0)  -->
<svg xmlns="http://www.w3.org/2000/svg" xmlns:xlink="http://www.w3.org/1999/xlink" version="1.1" id="Capa_1" x="0px" y="0px" viewBox="0 0 480.196 480.196" style="enable-background:new 0 0 480.196 480.196;" xml:space="preserve" width="40px" height="40px">
<g>
	<g>
		<path d="M437.746,221.757l-192-191.2c-3.122-3.1-8.162-3.096-11.28,0.008l-192,191.2c-3.229,3.016-3.402,8.078-0.386,11.307    c3.016,3.229,8.078,3.402,11.307,0.386c0.123-0.115,0.243-0.234,0.359-0.357l186.32-185.576l186.4,185.576    c3.186,3.061,8.25,2.96,11.311-0.226C440.765,229.766,440.751,224.849,437.746,221.757z" fill="#FFFFFF"/>
	</g>
</g>
<g>
	<g>
		<path d="M374.786,12.237H361.41c-14.28,0.31-25.616,12.119-25.344,26.4v49.688c0,4.418,3.582,8,8,8s8-3.582,8-8V38.637    c-0.273-5.445,3.901-10.09,9.344-10.4h13.376c5.418,0.343,9.554,4.978,9.28,10.4v100.8c0,4.418,3.582,8,8,8s8-3.582,8-8v-100.8    C400.339,24.38,389.041,12.582,374.786,12.237z" fill="#FFFFFF"/>
	</g>
</g>
<g>
	<g>
		<path d="M272.066,131.437H227.41l18.344-18.344c3.126-3.122,3.129-8.188,0.006-11.314c-0.002-0.002-0.004-0.004-0.006-0.006    c-3.124-3.123-8.188-3.123-11.312,0l-32,32c-3.128,3.12-3.135,8.186-0.014,11.314c1.495,1.498,3.522,2.343,5.638,2.35h64    c4.418,0,8-3.582,8-8S276.485,131.437,272.066,131.437z" fill="#FFFFFF"/>
	</g>
</g>
<g>
	<g>
		<path d="M477.778,389.773l-8.024-8c-16.286-16.246-41.154-20.216-61.688-9.848v-120c0-4.418-3.582-8-8-8s-8,3.582-8,8v131.768    c-14.721,12.566-36.622,11.731-50.344-1.92c-11.978-11.953-28.931-17.49-45.656-14.912V260.237c0-4.418-3.582-8-8-8h-96    c-4.418,0-8,3.582-8,8v106.624c-16.706-2.561-33.635,2.975-45.6,14.912c-13.722,13.651-35.623,14.486-50.344,1.92V244.237    c0-4.418-3.582-8-8-8c-4.418,0-8,3.582-8,8v127.688c-20.526-10.352-45.376-6.383-61.656,9.848l-8,8    c-3.07,3.178-2.982,8.242,0.196,11.312c3.1,2.994,8.016,2.994,11.116,0l8-8c14.128-14.061,36.825-14.495,51.48-0.984    c0.889,1.633,2.329,2.898,4.064,3.568c21.105,18.237,52.704,17.111,72.456-2.584c14.558-14.527,38.129-14.527,52.688,0    c20.808,20.769,54.504,20.769,75.312,0c14.558-14.527,38.129-14.527,52.688,0c19.737,19.729,51.364,20.857,72.456,2.584    c1.735-0.67,3.175-1.935,4.064-3.568c14.655-13.511,37.352-13.077,51.48,0.984l8,8c3.178,3.07,8.242,2.982,11.312-0.196    C480.773,397.789,480.773,392.873,477.778,389.773z M280.066,371.925c-5.028,2.539-9.619,5.863-13.6,9.848h-0.024    c-14.555,14.536-38.133,14.536-52.688,0c-4.008-3.992-8.629-7.317-13.688-9.848V268.237h80V371.925z" fill="#FFFFFF"/>
	</g>
</g>
<g>
	<g>
		<path d="M477.95,449.521c-0.064-0.066-0.129-0.132-0.196-0.196l-8-8c-20.808-20.769-54.504-20.769-75.312,0    c-14.549,14.549-38.139,14.549-52.688,0c0,0,0,0,0,0c-20.808-20.769-54.504-20.769-75.312,0    c-14.549,14.549-38.139,14.549-52.688,0c0,0,0,0,0,0c-20.808-20.769-54.504-20.769-75.312,0    c-14.549,14.549-38.139,14.549-52.688,0c0,0,0,0,0,0c-20.808-20.769-54.504-20.769-75.312,0l-8,8    c-3.178,3.069-3.266,8.134-0.196,11.312s8.134,3.266,11.312,0.196c0.067-0.064,0.132-0.13,0.196-0.196l8-8    c14.555-14.536,38.133-14.536,52.688,0c20.792,20.797,54.507,20.8,75.304,0.008c0.003-0.003,0.005-0.005,0.008-0.008    c14.555-14.536,38.133-14.536,52.688,0c20.792,20.797,54.507,20.8,75.304,0.008c0.003-0.003,0.005-0.005,0.008-0.008    c14.555-14.536,38.133-14.536,52.688,0c20.792,20.797,54.507,20.8,75.304,0.008c0.003-0.003,0.005-0.005,0.008-0.008    c14.555-14.536,38.133-14.536,52.688,0l8,8c3.07,3.178,8.134,3.266,11.312,0.196C480.932,457.763,481.02,452.699,477.95,449.521z" fill="#FFFFFF"/>
	</g>
</g>
<g>
	<g>
		<path d="M53.754,54.581l-32-32c-3.277-2.963-8.336-2.709-11.299,0.569c-2.759,3.051-2.754,7.698,0.011,10.743l32,32    c3.277,2.963,8.336,2.709,11.299-0.569C56.525,62.273,56.52,57.627,53.754,54.581z" fill="#FFFFFF"/>
	</g>
</g>
<g>
	<g>
		<path d="M85.975,86.778c-0.064-0.067-0.13-0.132-0.197-0.197l-8-8c-3.124-3.123-8.188-3.123-11.312,0    c-3.123,3.124-3.123,8.188,0,11.312l8,8c3.069,3.178,8.134,3.266,11.312,0.197C88.956,95.02,89.044,89.956,85.975,86.778z" fill="#FFFFFF"/>
	</g>
</g>
<g>
	<g>
		<path d="M141.778,78.581l-48-48c-3.124-3.123-8.188-3.123-11.312,0c-3.123,3.124-3.123,8.188,0,11.312l48,48    c3.178,3.069,8.243,2.981,11.312-0.197C144.772,86.596,144.772,81.681,141.778,78.581z" fill="#FFFFFF"/>
	</g>
</g>
<g>
	<g>
		<path d="M77.975,134.778c-0.064-0.067-0.13-0.132-0.197-0.197l-24-24c-3.124-3.123-8.188-3.123-11.312,0    c-3.123,3.124-3.123,8.188,0,11.312l24,24c3.069,3.178,8.134,3.266,11.312,0.197C80.956,143.02,81.044,137.956,77.975,134.778z" fill="#FFFFFF"/>
	</g>
</g>
<g>
	<g>
		<path d="M29.778,86.581l-16-16c-3.124-3.123-8.188-3.123-11.312,0c-3.123,3.124-3.123,8.188,0,11.312l16,16    c3.178,3.069,8.243,2.981,11.312-0.197C32.772,94.596,32.772,89.681,29.778,86.581z" fill="#FFFFFF"/>
	</g>
</g>
<g>
	<g>
		<path d="M157.778,30.581l-16.024-16c-2.97-3.271-8.03-3.515-11.301-0.545c-3.271,2.97-3.515,8.03-0.545,11.301    c0.177,0.194,0.362,0.38,0.557,0.556l16,16c3.178,3.069,8.243,2.981,11.312-0.197C160.772,38.596,160.772,33.681,157.778,30.581z" fill="#FFFFFF"/>
	</g>
</g>
<g>
</g>
<g>
</g>
<g>
</g>
<g>
</g>
<g>
</g>
<g>
</g>
<g>
</g>
<g>
</g>
<g>
</g>
<g>
</g>
<g>
</g>
<g>
</g>
<g>
</g>
<g>
</g>
<g>
</g>
</svg>
