<?xml version="1.0" encoding="utf-8"?>
<!-- Generator: Adobe Illustrator 21.0.0, SVG Export Plug-In . SVG Version: 6.00 Build 0)  -->
<svg version="1.1" id="Capa_1" xmlns="http://www.w3.org/2000/svg" xmlns:xlink="http://www.w3.org/1999/xlink" x="0" y="0"
	 viewBox="0 0 512 512" style="enable-background:new 0 0 512 512;" xml:space="preserve">
<style type="text/css">
	.st0{fill:#FFFFFF;}
	.st1{fill:none;}
	.st2{font-family:'MyriadPro-Regular';}
	.st3{font-size:192px;}
</style>
<g>
	<path class="st0" d="M381.5,108.1c19.7,0,35.5-15.8,35.5-35.4V35.5c0-19.7-15.8-35.5-35.5-35.5c-19.6,0-35.5,15.8-35.5,35.5v37.1
		C346.1,92.3,362,108.1,381.5,108.1z"/>
	<path class="st0" d="M507.8,61.5h-71.6v18c0,29.9-24.2,54.1-54,54.1c-29.9,0-54-24.2-54-54.1v-18H183.9v18
		c0,29.9-24.2,54.1-54,54.1c-29.9,0-54-24.2-54-54.1v-18L3.7,60.6V512l36.1,0h432.5l36.1-0.1L507.8,61.5z M472.3,476.1H39.7V187.7
		h432.5V476.1z"/>
	<path class="st0" d="M129.2,108.1c19.7,0,35.5-15.8,35.5-35.4V35.5c0-19.7-15.9-35.5-35.5-35.5c-19.6,0-35.5,15.8-35.5,35.5v37.1
		C93.7,92.3,109.7,108.1,129.2,108.1z"/>
</g>
<rect x="58" y="256" class="st1" width="50px" height="50px"/>
<text transform="matrix(1 0 0 1 58 392.3184)" class="st0 st2 st3">2080</text>
</svg>
