<?xml version="1.0" encoding="UTF-8" standalone="no"?>
<!-- Generator: Adobe Illustrator 21.0.0, SVG Export Plug-In . SVG Version: 6.00 Build 0)  -->

<svg
   xmlns:dc="http://purl.org/dc/elements/1.1/"
   xmlns:cc="http://creativecommons.org/ns#"
   xmlns:rdf="http://www.w3.org/1999/02/22-rdf-syntax-ns#"
   xmlns:svg="http://www.w3.org/2000/svg"
   xmlns="http://www.w3.org/2000/svg"
   xmlns:sodipodi="http://sodipodi.sourceforge.net/DTD/sodipodi-0.dtd"
   xmlns:inkscape="http://www.inkscape.org/namespaces/inkscape"
   version="1.1"
   id="Capa_1"
   x="0"
   y="0"
   viewBox="0 0 512 512"
   style="enable-background:new 0 0 512 512;"
   xml:space="preserve"
   inkscape:version="0.91 r13725"
   sodipodi:docname="Year2080.svg"><metadata
     id="metadata21"><rdf:RDF><cc:Work
         rdf:about=""><dc:format>image/svg+xml</dc:format><dc:type
           rdf:resource="http://purl.org/dc/dcmitype/StillImage" /></cc:Work></rdf:RDF></metadata><defs
     id="defs19" /><sodipodi:namedview
     pagecolor="#ffffff"
     bordercolor="#666666"
     borderopacity="1"
     objecttolerance="10"
     gridtolerance="10"
     guidetolerance="10"
     inkscape:pageopacity="0"
     inkscape:pageshadow="2"
     inkscape:window-width="640"
     inkscape:window-height="480"
     id="namedview17"
     showgrid="false"
     inkscape:zoom="0.4609375"
     inkscape:cx="256"
     inkscape:cy="256"
     inkscape:window-x="0"
     inkscape:window-y="0"
     inkscape:window-maximized="0"
     inkscape:current-layer="g5" /><style
     type="text/css"
     id="style3">
	.st0{fill:#D80027;}
	.st1{fill:none;}
	.st2{font-family:'MyriadPro-Regular';}
	.st3{font-size:192px;}
</style><g
     id="g5"
     style="fill:#ffff00"><path
       class="st0"
       d="M381.5,108.1c19.7,0,35.5-15.8,35.5-35.4V35.5c0-19.7-15.8-35.5-35.5-35.5c-19.6,0-35.5,15.8-35.5,35.5v37.1   C346.1,92.3,362,108.1,381.5,108.1z"
       id="path7"
       style="fill:#d4aa00" /><path
       class="st0"
       d="M507.8,61.5h-71.6v18c0,29.9-24.2,54.1-54,54.1c-29.9,0-54-24.2-54-54.1v-18H183.9v18   c0,29.9-24.2,54.1-54,54.1c-29.9,0-54-24.2-54-54.1v-18L3.7,60.6V512l36.1,0h432.5l36.1-0.1L507.8,61.5z M472.3,476.1H39.7V187.7   h432.5V476.1z"
       id="path9"
       style="fill:#ffdd55" /><path
       class="st0"
       d="M129.2,108.1c19.7,0,35.5-15.8,35.5-35.4V35.5c0-19.7-15.9-35.5-35.5-35.5c-19.6,0-35.5,15.8-35.5,35.5v37.1   C93.7,92.3,109.7,108.1,129.2,108.1z"
       id="path11"
       style="fill:#d4aa00" /></g><text
     transform="matrix(1 0 0 1 58 392.3184)"
     class="st0 st2 st3"
     id="text15"
     style="fill:#ffff00;">2080</text>
</svg>